<mxfile host="Electron" agent="Mozilla/5.0 (Macintosh; Intel Mac OS X 10_15_7) AppleWebKit/537.36 (KHTML, like Gecko) draw.io/26.2.2 Chrome/134.0.6998.178 Electron/35.1.2 Safari/537.36" version="26.2.2">
  <diagram name="Page-1" id="bw5HR7CjsuvUzGu2_02q">
    <mxGraphModel dx="1115" dy="861" grid="1" gridSize="10" guides="1" tooltips="1" connect="1" arrows="1" fold="1" page="1" pageScale="1" pageWidth="827" pageHeight="1169" math="0" shadow="0">
      <root>
        <mxCell id="0" />
        <mxCell id="1" parent="0" />
        <mxCell id="AjTUZmJbDVveaUUCRkhq-2" value="" style="rounded=0;whiteSpace=wrap;html=1;dashed=1;strokeColor=light-dark(#787878, #ededed);" parent="1" vertex="1">
          <mxGeometry x="50" y="200" width="140" height="560" as="geometry" />
        </mxCell>
        <mxCell id="AjTUZmJbDVveaUUCRkhq-3" value="&lt;font style=&quot;color: light-dark(rgb(120, 120, 120), rgb(237, 237, 237));&quot;&gt;Sources&lt;/font&gt;" style="text;html=1;align=center;verticalAlign=middle;whiteSpace=wrap;rounded=0;fontSize=24;strokeColor=none;fillColor=default;" parent="1" vertex="1">
          <mxGeometry x="65" y="180" width="110" height="40" as="geometry" />
        </mxCell>
        <mxCell id="AjTUZmJbDVveaUUCRkhq-4" value="" style="image;aspect=fixed;html=1;points=[];align=center;fontSize=12;image=img/lib/azure2/general/Folder_Blank.svg;" parent="1" vertex="1">
          <mxGeometry x="90" y="570.65" width="53.41" height="43.35" as="geometry" />
        </mxCell>
        <mxCell id="AjTUZmJbDVveaUUCRkhq-5" value="" style="image;aspect=fixed;html=1;points=[];align=center;fontSize=12;image=img/lib/azure2/general/Folder_Blank.svg;" parent="1" vertex="1">
          <mxGeometry x="90" y="356.66" width="53.41" height="43.34" as="geometry" />
        </mxCell>
        <mxCell id="AjTUZmJbDVveaUUCRkhq-29" value="" style="edgeStyle=orthogonalEdgeStyle;rounded=0;orthogonalLoop=1;jettySize=auto;html=1;entryX=0;entryY=0.5;entryDx=0;entryDy=0;" parent="1" source="AjTUZmJbDVveaUUCRkhq-6" target="AjTUZmJbDVveaUUCRkhq-14" edge="1">
          <mxGeometry relative="1" as="geometry">
            <Array as="points">
              <mxPoint x="210" y="385" />
              <mxPoint x="210" y="385" />
            </Array>
          </mxGeometry>
        </mxCell>
        <mxCell id="AjTUZmJbDVveaUUCRkhq-6" value="" style="image;aspect=fixed;html=1;points=[];align=center;fontSize=12;image=img/lib/azure2/general/File.svg;" parent="1" vertex="1">
          <mxGeometry x="120" y="380" width="23.54" height="29" as="geometry" />
        </mxCell>
        <mxCell id="AjTUZmJbDVveaUUCRkhq-7" value="" style="image;aspect=fixed;html=1;points=[];align=center;fontSize=12;image=img/lib/azure2/general/File.svg;" parent="1" vertex="1">
          <mxGeometry x="130" y="601" width="23.54" height="29" as="geometry" />
        </mxCell>
        <mxCell id="AjTUZmJbDVveaUUCRkhq-8" value="&lt;b&gt;CRM&lt;/b&gt;" style="text;html=1;align=center;verticalAlign=middle;whiteSpace=wrap;rounded=0;" parent="1" vertex="1">
          <mxGeometry x="83.53999999999999" y="409" width="60" height="30" as="geometry" />
        </mxCell>
        <mxCell id="AjTUZmJbDVveaUUCRkhq-10" value="&lt;b&gt;ERP&lt;/b&gt;" style="text;html=1;align=center;verticalAlign=middle;whiteSpace=wrap;rounded=0;" parent="1" vertex="1">
          <mxGeometry x="83.53999999999999" y="620" width="60" height="30" as="geometry" />
        </mxCell>
        <mxCell id="AjTUZmJbDVveaUUCRkhq-11" value="" style="rounded=1;whiteSpace=wrap;html=1;fillColor=#ffe6cc;strokeColor=#d79b00;fillStyle=hatch;" parent="1" vertex="1">
          <mxGeometry x="240" y="290" width="200" height="470" as="geometry" />
        </mxCell>
        <mxCell id="AjTUZmJbDVveaUUCRkhq-12" value="&lt;blockquote style=&quot;margin: 0 0 0 40px; border: none; padding: 0px;&quot;&gt;&lt;font style=&quot;font-size: 19px; color: light-dark(rgb(117, 117, 117), rgb(237, 237, 237));&quot;&gt;Bronze Layer&lt;/font&gt;&lt;/blockquote&gt;" style="rounded=1;whiteSpace=wrap;html=1;fillColor=#ffe6cc;strokeColor=#d79b00;fillStyle=auto;align=left;" parent="1" vertex="1">
          <mxGeometry x="240" y="200" width="200" height="80" as="geometry" />
        </mxCell>
        <mxCell id="AjTUZmJbDVveaUUCRkhq-13" value="&lt;blockquote style=&quot;margin: 0 0 0 40px; border: none; padding: 0px;&quot;&gt;&lt;br&gt;&lt;/blockquote&gt;" style="rounded=1;whiteSpace=wrap;html=1;fillColor=#ffe6cc;strokeColor=#d79b00;fillStyle=auto;align=left;" parent="1" vertex="1">
          <mxGeometry x="270" y="320" width="140" height="30" as="geometry" />
        </mxCell>
        <mxCell id="AjTUZmJbDVveaUUCRkhq-14" value="&lt;blockquote style=&quot;margin: 0 0 0 40px; border: none; padding: 0px;&quot;&gt;&lt;br&gt;&lt;/blockquote&gt;" style="rounded=1;whiteSpace=wrap;html=1;fillColor=#ffe6cc;strokeColor=#d79b00;fillStyle=auto;align=left;" parent="1" vertex="1">
          <mxGeometry x="270" y="370" width="140" height="30" as="geometry" />
        </mxCell>
        <mxCell id="AjTUZmJbDVveaUUCRkhq-15" value="&lt;blockquote style=&quot;margin: 0 0 0 40px; border: none; padding: 0px;&quot;&gt;&lt;br&gt;&lt;/blockquote&gt;" style="rounded=1;whiteSpace=wrap;html=1;fillColor=#ffe6cc;strokeColor=#d79b00;fillStyle=auto;align=left;" parent="1" vertex="1">
          <mxGeometry x="270" y="420" width="140" height="30" as="geometry" />
        </mxCell>
        <mxCell id="AjTUZmJbDVveaUUCRkhq-16" value="&lt;blockquote style=&quot;margin: 0 0 0 40px; border: none; padding: 0px;&quot;&gt;&lt;br&gt;&lt;/blockquote&gt;" style="rounded=1;whiteSpace=wrap;html=1;fillColor=#ffe6cc;strokeColor=#d79b00;fillStyle=auto;align=left;" parent="1" vertex="1">
          <mxGeometry x="270" y="630" width="140" height="30" as="geometry" />
        </mxCell>
        <mxCell id="AjTUZmJbDVveaUUCRkhq-17" value="&lt;blockquote style=&quot;margin: 0 0 0 40px; border: none; padding: 0px;&quot;&gt;&lt;br&gt;&lt;/blockquote&gt;" style="rounded=1;whiteSpace=wrap;html=1;fillColor=#ffe6cc;strokeColor=#d79b00;fillStyle=auto;align=left;" parent="1" vertex="1">
          <mxGeometry x="270" y="580" width="140" height="30" as="geometry" />
        </mxCell>
        <mxCell id="AjTUZmJbDVveaUUCRkhq-18" value="&lt;blockquote style=&quot;margin: 0 0 0 40px; border: none; padding: 0px;&quot;&gt;&lt;br&gt;&lt;/blockquote&gt;" style="rounded=1;whiteSpace=wrap;html=1;fillColor=#ffe6cc;strokeColor=#d79b00;fillStyle=auto;align=left;" parent="1" vertex="1">
          <mxGeometry x="270" y="530" width="140" height="30" as="geometry" />
        </mxCell>
        <mxCell id="AjTUZmJbDVveaUUCRkhq-19" value="&lt;font style=&quot;font-size: 15px; color: light-dark(rgb(71, 71, 71), rgb(237, 237, 237));&quot;&gt;crm_cust_info&lt;/font&gt;" style="text;html=1;align=center;verticalAlign=middle;whiteSpace=wrap;rounded=0;" parent="1" vertex="1">
          <mxGeometry x="290" y="325" width="100" height="20" as="geometry" />
        </mxCell>
        <mxCell id="AjTUZmJbDVveaUUCRkhq-21" value="&lt;font style=&quot;font-size: 15px; color: light-dark(rgb(71, 71, 71), rgb(237, 237, 237));&quot;&gt;crm_prd_info&lt;/font&gt;" style="text;html=1;align=center;verticalAlign=middle;whiteSpace=wrap;rounded=0;" parent="1" vertex="1">
          <mxGeometry x="290" y="370" width="100" height="30" as="geometry" />
        </mxCell>
        <mxCell id="AjTUZmJbDVveaUUCRkhq-22" value="&lt;font style=&quot;font-size: 15px; color: light-dark(rgb(71, 71, 71), rgb(237, 237, 237));&quot;&gt;crm_sales_details&lt;/font&gt;" style="text;html=1;align=center;verticalAlign=middle;whiteSpace=wrap;rounded=0;" parent="1" vertex="1">
          <mxGeometry x="280" y="420" width="120" height="30" as="geometry" />
        </mxCell>
        <mxCell id="AjTUZmJbDVveaUUCRkhq-24" value="&lt;font style=&quot;color: light-dark(rgb(71, 71, 71), rgb(237, 237, 237)); font-size: 14px;&quot;&gt;erp_PX_CAT_G1V2&lt;/font&gt;" style="text;html=1;align=center;verticalAlign=middle;whiteSpace=wrap;rounded=0;" parent="1" vertex="1">
          <mxGeometry x="280" y="630" width="120" height="30" as="geometry" />
        </mxCell>
        <mxCell id="AjTUZmJbDVveaUUCRkhq-25" value="&lt;font style=&quot;color: light-dark(rgb(71, 71, 71), rgb(237, 237, 237)); font-size: 14px;&quot;&gt;erp_LOC_A101&lt;/font&gt;" style="text;html=1;align=center;verticalAlign=middle;whiteSpace=wrap;rounded=0;" parent="1" vertex="1">
          <mxGeometry x="280" y="580" width="120" height="30" as="geometry" />
        </mxCell>
        <mxCell id="AjTUZmJbDVveaUUCRkhq-26" value="&lt;font style=&quot;color: light-dark(rgb(71, 71, 71), rgb(237, 237, 237)); font-size: 14px;&quot;&gt;erp_CUST_AZ12&lt;/font&gt;" style="text;html=1;align=center;verticalAlign=middle;whiteSpace=wrap;rounded=0;" parent="1" vertex="1">
          <mxGeometry x="280" y="530" width="120" height="30" as="geometry" />
        </mxCell>
        <mxCell id="AjTUZmJbDVveaUUCRkhq-35" value="" style="edgeStyle=orthogonalEdgeStyle;rounded=0;orthogonalLoop=1;jettySize=auto;html=1;entryX=0;entryY=0.5;entryDx=0;entryDy=0;" parent="1" edge="1">
          <mxGeometry relative="1" as="geometry">
            <mxPoint x="144" y="594.5" as="sourcePoint" />
            <mxPoint x="270" y="594.5" as="targetPoint" />
            <Array as="points">
              <mxPoint x="210" y="594.5" />
              <mxPoint x="210" y="594.5" />
            </Array>
          </mxGeometry>
        </mxCell>
        <mxCell id="3tly6eM19KEWcBhfWekc-1" value="&lt;blockquote style=&quot;margin: 0 0 0 40px; border: none; padding: 0px;&quot;&gt;&lt;font style=&quot;font-size: 19px; color: light-dark(rgb(117, 117, 117), rgb(237, 237, 237));&quot;&gt;Silver Layer&lt;/font&gt;&lt;/blockquote&gt;" style="rounded=1;whiteSpace=wrap;html=1;fillColor=#f5f5f5;strokeColor=#666666;fillStyle=auto;align=left;fontColor=#333333;" parent="1" vertex="1">
          <mxGeometry x="530" y="200" width="200" height="80" as="geometry" />
        </mxCell>
        <mxCell id="3tly6eM19KEWcBhfWekc-14" value="" style="rounded=1;whiteSpace=wrap;html=1;fillColor=#dae8fc;strokeColor=#6c8ebf;fillStyle=hatch;" parent="1" vertex="1">
          <mxGeometry x="530" y="290" width="200" height="470" as="geometry" />
        </mxCell>
        <mxCell id="3tly6eM19KEWcBhfWekc-27" value="&lt;blockquote style=&quot;margin: 0 0 0 40px; border: none; padding: 0px;&quot;&gt;&lt;br&gt;&lt;/blockquote&gt;" style="rounded=1;whiteSpace=wrap;html=1;fillColor=#f5f5f5;strokeColor=#666666;fillStyle=auto;align=left;fontColor=#333333;" parent="1" vertex="1">
          <mxGeometry x="560" y="320" width="140" height="30" as="geometry" />
        </mxCell>
        <mxCell id="3tly6eM19KEWcBhfWekc-28" value="&lt;blockquote style=&quot;margin: 0 0 0 40px; border: none; padding: 0px;&quot;&gt;&lt;br&gt;&lt;/blockquote&gt;" style="rounded=1;whiteSpace=wrap;html=1;fillColor=#f5f5f5;strokeColor=#666666;fillStyle=auto;align=left;fontColor=#333333;" parent="1" vertex="1">
          <mxGeometry x="560" y="370" width="140" height="30" as="geometry" />
        </mxCell>
        <mxCell id="3tly6eM19KEWcBhfWekc-29" value="&lt;blockquote style=&quot;margin: 0 0 0 40px; border: none; padding: 0px;&quot;&gt;&lt;br&gt;&lt;/blockquote&gt;" style="rounded=1;whiteSpace=wrap;html=1;fillColor=#f5f5f5;strokeColor=#666666;fillStyle=auto;align=left;fontColor=#333333;" parent="1" vertex="1">
          <mxGeometry x="560" y="420" width="140" height="30" as="geometry" />
        </mxCell>
        <mxCell id="3tly6eM19KEWcBhfWekc-30" value="&lt;blockquote style=&quot;margin: 0 0 0 40px; border: none; padding: 0px;&quot;&gt;&lt;br&gt;&lt;/blockquote&gt;" style="rounded=1;whiteSpace=wrap;html=1;fillColor=#f5f5f5;strokeColor=#666666;fillStyle=auto;align=left;fontColor=#333333;" parent="1" vertex="1">
          <mxGeometry x="560" y="630" width="140" height="30" as="geometry" />
        </mxCell>
        <mxCell id="3tly6eM19KEWcBhfWekc-31" value="&lt;blockquote style=&quot;margin: 0 0 0 40px; border: none; padding: 0px;&quot;&gt;&lt;br&gt;&lt;/blockquote&gt;" style="rounded=1;whiteSpace=wrap;html=1;fillColor=#f5f5f5;strokeColor=#666666;fillStyle=auto;align=left;fontColor=#333333;" parent="1" vertex="1">
          <mxGeometry x="560" y="580" width="140" height="30" as="geometry" />
        </mxCell>
        <mxCell id="3tly6eM19KEWcBhfWekc-32" value="&lt;blockquote style=&quot;margin: 0 0 0 40px; border: none; padding: 0px;&quot;&gt;&lt;br&gt;&lt;/blockquote&gt;" style="rounded=1;whiteSpace=wrap;html=1;fillColor=#f5f5f5;strokeColor=#666666;fillStyle=auto;align=left;fontColor=#333333;" parent="1" vertex="1">
          <mxGeometry x="560" y="530" width="140" height="30" as="geometry" />
        </mxCell>
        <mxCell id="3tly6eM19KEWcBhfWekc-33" value="&lt;font style=&quot;font-size: 15px; color: light-dark(rgb(71, 71, 71), rgb(237, 237, 237));&quot;&gt;crm_cust_info&lt;/font&gt;" style="text;html=1;align=center;verticalAlign=middle;whiteSpace=wrap;rounded=0;" parent="1" vertex="1">
          <mxGeometry x="580" y="325" width="100" height="20" as="geometry" />
        </mxCell>
        <mxCell id="3tly6eM19KEWcBhfWekc-34" value="&lt;font style=&quot;font-size: 15px; color: light-dark(rgb(71, 71, 71), rgb(237, 237, 237));&quot;&gt;crm_prd_info&lt;/font&gt;" style="text;html=1;align=center;verticalAlign=middle;whiteSpace=wrap;rounded=0;" parent="1" vertex="1">
          <mxGeometry x="580" y="370" width="100" height="30" as="geometry" />
        </mxCell>
        <mxCell id="3tly6eM19KEWcBhfWekc-36" value="&lt;font style=&quot;color: light-dark(rgb(71, 71, 71), rgb(237, 237, 237)); font-size: 14px;&quot;&gt;erp_PX_CAT_G1V2&lt;/font&gt;" style="text;html=1;align=center;verticalAlign=middle;whiteSpace=wrap;rounded=0;" parent="1" vertex="1">
          <mxGeometry x="570" y="630" width="120" height="30" as="geometry" />
        </mxCell>
        <mxCell id="3tly6eM19KEWcBhfWekc-37" value="&lt;font style=&quot;color: light-dark(rgb(71, 71, 71), rgb(237, 237, 237)); font-size: 14px;&quot;&gt;erp_LOC_A101&lt;/font&gt;" style="text;html=1;align=center;verticalAlign=middle;whiteSpace=wrap;rounded=0;" parent="1" vertex="1">
          <mxGeometry x="570" y="580" width="120" height="30" as="geometry" />
        </mxCell>
        <mxCell id="3tly6eM19KEWcBhfWekc-38" value="&lt;font style=&quot;color: light-dark(rgb(71, 71, 71), rgb(237, 237, 237)); font-size: 14px;&quot;&gt;erp_CUST_AZ12&lt;/font&gt;" style="text;html=1;align=center;verticalAlign=middle;whiteSpace=wrap;rounded=0;" parent="1" vertex="1">
          <mxGeometry x="570" y="530" width="120" height="30" as="geometry" />
        </mxCell>
        <mxCell id="3tly6eM19KEWcBhfWekc-39" value="&lt;font style=&quot;font-size: 15px; color: light-dark(rgb(71, 71, 71), rgb(237, 237, 237));&quot;&gt;crm_sales_details&lt;/font&gt;" style="text;html=1;align=center;verticalAlign=middle;whiteSpace=wrap;rounded=0;" parent="1" vertex="1">
          <mxGeometry x="570" y="420" width="120" height="30" as="geometry" />
        </mxCell>
        <mxCell id="HO2WPKc4sr4KZdbYSBco-4" value="" style="endArrow=classic;html=1;rounded=0;entryX=0;entryY=0.5;entryDx=0;entryDy=0;" parent="1" target="3tly6eM19KEWcBhfWekc-27" edge="1">
          <mxGeometry width="50" height="50" relative="1" as="geometry">
            <mxPoint x="414" y="335" as="sourcePoint" />
            <mxPoint x="464" y="290" as="targetPoint" />
          </mxGeometry>
        </mxCell>
        <mxCell id="HO2WPKc4sr4KZdbYSBco-5" value="" style="endArrow=classic;html=1;rounded=0;entryX=0;entryY=0.5;entryDx=0;entryDy=0;" parent="1" edge="1" target="3tly6eM19KEWcBhfWekc-28">
          <mxGeometry width="50" height="50" relative="1" as="geometry">
            <mxPoint x="413.5" y="384.5" as="sourcePoint" />
            <mxPoint x="509.5" y="384.5" as="targetPoint" />
          </mxGeometry>
        </mxCell>
        <mxCell id="HO2WPKc4sr4KZdbYSBco-6" value="" style="endArrow=classic;html=1;rounded=0;entryX=0;entryY=0.5;entryDx=0;entryDy=0;" parent="1" edge="1" target="3tly6eM19KEWcBhfWekc-29">
          <mxGeometry width="50" height="50" relative="1" as="geometry">
            <mxPoint x="414" y="434.5" as="sourcePoint" />
            <mxPoint x="510" y="434.5" as="targetPoint" />
          </mxGeometry>
        </mxCell>
        <mxCell id="HO2WPKc4sr4KZdbYSBco-7" value="" style="endArrow=classic;html=1;rounded=0;entryX=0;entryY=0.5;entryDx=0;entryDy=0;" parent="1" edge="1" target="3tly6eM19KEWcBhfWekc-32">
          <mxGeometry width="50" height="50" relative="1" as="geometry">
            <mxPoint x="413.5" y="544.5" as="sourcePoint" />
            <mxPoint x="509.5" y="544.5" as="targetPoint" />
          </mxGeometry>
        </mxCell>
        <mxCell id="HO2WPKc4sr4KZdbYSBco-8" value="" style="endArrow=classic;html=1;rounded=0;entryX=0;entryY=0.5;entryDx=0;entryDy=0;" parent="1" edge="1" target="3tly6eM19KEWcBhfWekc-31">
          <mxGeometry width="50" height="50" relative="1" as="geometry">
            <mxPoint x="413.5" y="594.5" as="sourcePoint" />
            <mxPoint x="509.5" y="594.5" as="targetPoint" />
          </mxGeometry>
        </mxCell>
        <mxCell id="HO2WPKc4sr4KZdbYSBco-9" value="" style="endArrow=classic;html=1;rounded=0;entryX=0;entryY=0.5;entryDx=0;entryDy=0;" parent="1" edge="1" target="3tly6eM19KEWcBhfWekc-30">
          <mxGeometry width="50" height="50" relative="1" as="geometry">
            <mxPoint x="413.5" y="644.5" as="sourcePoint" />
            <mxPoint x="509.5" y="644.5" as="targetPoint" />
          </mxGeometry>
        </mxCell>
        <mxCell id="nBNJgqtIu-nhrXZQP4if-15" value="&lt;blockquote style=&quot;margin: 0 0 0 40px; border: none; padding: 0px;&quot;&gt;&lt;font style=&quot;font-size: 19px; color: light-dark(rgb(117, 117, 117), rgb(237, 237, 237));&quot;&gt;Gold Layer&lt;/font&gt;&lt;/blockquote&gt;" style="rounded=1;whiteSpace=wrap;html=1;fillColor=#fff2cc;strokeColor=#d6b656;fillStyle=auto;align=left;" vertex="1" parent="1">
          <mxGeometry x="800" y="200" width="200" height="80" as="geometry" />
        </mxCell>
        <mxCell id="nBNJgqtIu-nhrXZQP4if-16" value="" style="rounded=1;whiteSpace=wrap;html=1;fillColor=#fff2cc;strokeColor=#d6b656;fillStyle=hatch;" vertex="1" parent="1">
          <mxGeometry x="800" y="290" width="200" height="470" as="geometry" />
        </mxCell>
        <mxCell id="nBNJgqtIu-nhrXZQP4if-18" value="&lt;blockquote style=&quot;margin: 0 0 0 40px; border: none; padding: 0px;&quot;&gt;&lt;br&gt;&lt;/blockquote&gt;" style="rounded=1;whiteSpace=wrap;html=1;fillColor=#fff2cc;strokeColor=#d6b656;fillStyle=auto;align=left;" vertex="1" parent="1">
          <mxGeometry x="827" y="470" width="140" height="30" as="geometry" />
        </mxCell>
        <mxCell id="nBNJgqtIu-nhrXZQP4if-19" value="&lt;blockquote style=&quot;margin: 0 0 0 40px; border: none; padding: 0px;&quot;&gt;&lt;br&gt;&lt;/blockquote&gt;" style="rounded=1;whiteSpace=wrap;html=1;fillColor=#fff2cc;strokeColor=#d6b656;fillStyle=auto;align=left;" vertex="1" parent="1">
          <mxGeometry x="827" y="590" width="140" height="30" as="geometry" />
        </mxCell>
        <mxCell id="nBNJgqtIu-nhrXZQP4if-24" value="&lt;font style=&quot;font-size: 15px; color: light-dark(rgb(71, 71, 71), rgb(237, 237, 237));&quot;&gt;dim_customers&lt;/font&gt;" style="text;html=1;align=center;verticalAlign=middle;whiteSpace=wrap;rounded=0;" vertex="1" parent="1">
          <mxGeometry x="840" y="470" width="100" height="30" as="geometry" />
        </mxCell>
        <mxCell id="nBNJgqtIu-nhrXZQP4if-28" value="&lt;font style=&quot;font-size: 15px; color: light-dark(rgb(71, 71, 71), rgb(237, 237, 237));&quot;&gt;dim_products&lt;/font&gt;" style="text;html=1;align=center;verticalAlign=middle;whiteSpace=wrap;rounded=0;" vertex="1" parent="1">
          <mxGeometry x="830" y="590" width="120" height="30" as="geometry" />
        </mxCell>
        <mxCell id="nBNJgqtIu-nhrXZQP4if-31" value="&lt;blockquote style=&quot;margin: 0 0 0 40px; border: none; padding: 0px;&quot;&gt;&lt;font style=&quot;font-size: 15px;&quot;&gt;fact_sales&lt;/font&gt;&lt;/blockquote&gt;" style="rounded=1;whiteSpace=wrap;html=1;fillColor=#fff2cc;strokeColor=#d6b656;fillStyle=auto;align=left;" vertex="1" parent="1">
          <mxGeometry x="827" y="345" width="140" height="30" as="geometry" />
        </mxCell>
        <mxCell id="nBNJgqtIu-nhrXZQP4if-32" value="" style="endArrow=classic;html=1;rounded=0;exitX=1;exitY=0.5;exitDx=0;exitDy=0;" edge="1" parent="1" source="3tly6eM19KEWcBhfWekc-27">
          <mxGeometry width="50" height="50" relative="1" as="geometry">
            <mxPoint x="777" y="410" as="sourcePoint" />
            <mxPoint x="827" y="360" as="targetPoint" />
          </mxGeometry>
        </mxCell>
        <mxCell id="nBNJgqtIu-nhrXZQP4if-33" value="" style="endArrow=classic;html=1;rounded=0;exitX=1;exitY=0.5;exitDx=0;exitDy=0;entryX=0;entryY=0.25;entryDx=0;entryDy=0;jumpStyle=gap;" edge="1" parent="1" target="nBNJgqtIu-nhrXZQP4if-18">
          <mxGeometry width="50" height="50" relative="1" as="geometry">
            <mxPoint x="700" y="390" as="sourcePoint" />
            <mxPoint x="827" y="415" as="targetPoint" />
          </mxGeometry>
        </mxCell>
        <mxCell id="nBNJgqtIu-nhrXZQP4if-34" value="" style="endArrow=classic;html=1;rounded=0;exitX=1;exitY=0.5;exitDx=0;exitDy=0;entryX=0;entryY=0.5;entryDx=0;entryDy=0;jumpStyle=gap;" edge="1" parent="1" target="nBNJgqtIu-nhrXZQP4if-18">
          <mxGeometry width="50" height="50" relative="1" as="geometry">
            <mxPoint x="700" y="545.65" as="sourcePoint" />
            <mxPoint x="820" y="490" as="targetPoint" />
          </mxGeometry>
        </mxCell>
        <mxCell id="nBNJgqtIu-nhrXZQP4if-35" value="" style="endArrow=classic;html=1;rounded=0;exitX=1;exitY=0.5;exitDx=0;exitDy=0;entryX=0;entryY=0.75;entryDx=0;entryDy=0;jumpStyle=gap;" edge="1" parent="1" target="nBNJgqtIu-nhrXZQP4if-18">
          <mxGeometry width="50" height="50" relative="1" as="geometry">
            <mxPoint x="700" y="595" as="sourcePoint" />
            <mxPoint x="827" y="620" as="targetPoint" />
          </mxGeometry>
        </mxCell>
        <mxCell id="nBNJgqtIu-nhrXZQP4if-36" value="" style="endArrow=classic;html=1;rounded=0;exitX=1;exitY=0.5;exitDx=0;exitDy=0;entryX=0;entryY=0.5;entryDx=0;entryDy=0;jumpStyle=gap;" edge="1" parent="1" target="nBNJgqtIu-nhrXZQP4if-28">
          <mxGeometry width="50" height="50" relative="1" as="geometry">
            <mxPoint x="700" y="650" as="sourcePoint" />
            <mxPoint x="827" y="548" as="targetPoint" />
          </mxGeometry>
        </mxCell>
        <mxCell id="nBNJgqtIu-nhrXZQP4if-38" value="" style="endArrow=classic;html=1;rounded=0;exitX=1;exitY=0.5;exitDx=0;exitDy=0;entryX=0;entryY=0.25;entryDx=0;entryDy=0;jumpStyle=gap;" edge="1" parent="1" target="nBNJgqtIu-nhrXZQP4if-19">
          <mxGeometry width="50" height="50" relative="1" as="geometry">
            <mxPoint x="700" y="436" as="sourcePoint" />
            <mxPoint x="827" y="524" as="targetPoint" />
          </mxGeometry>
        </mxCell>
      </root>
    </mxGraphModel>
  </diagram>
</mxfile>
